<svg xmlns="http://www.w3.org/2000/svg" width="124" height="40" viewBox="0 0 124 40" fill="none">
  <path
    d="M51.1417 17.5086H55.2631V32.4413H51.1417V17.5086ZM53.2322 15.7913C52.6349 15.7913 52.1322 15.5922 51.7241 15.194C51.3159 14.7958 51.1118 14.303 51.1118 13.7157C51.1118 13.1283 51.3159 12.6356 51.7241 12.2373C52.1322 11.8391 52.63 11.64 53.2173 11.64C53.8047 11.64 54.2974 11.8391 54.6956 12.2373C55.1038 12.6356 55.3079 13.1283 55.3079 13.7157C55.3079 14.303 55.1088 14.7958 54.7106 15.194C54.3223 15.5922 53.8295 15.7913 53.2322 15.7913Z"
    fill="#517185"
  />
  <path
    d="M72.1164 22.9441V32.4413H67.995V24.079C67.995 23.5514 67.8656 23.0785 67.6067 22.6604C67.3579 22.2323 67.0194 21.8938 66.5913 21.645C66.1732 21.3961 65.7053 21.2717 65.1877 21.2717C64.67 21.2717 64.1971 21.3961 63.7691 21.645C63.341 21.8938 63.0025 22.2323 62.7536 22.6604C62.5048 23.0785 62.3803 23.5514 62.3803 24.079V32.4413H58.2589L58.244 17.5086H62.3654L62.3803 18.6136C62.8781 18.1358 63.4605 17.7625 64.1274 17.4937C64.8044 17.2249 65.5162 17.0905 66.2628 17.0905C67.3479 17.0905 68.3285 17.3543 69.2045 17.8819C70.0905 18.4095 70.7973 19.1164 71.325 20.0024C71.8526 20.8784 72.1164 21.859 72.1164 22.9441Z"
    fill="#517185"
  />
  <path
    d="M81.7684 32.8595C80.325 32.8595 79.0059 32.506 77.8113 31.7992C76.6266 31.0924 75.6809 30.1417 74.9741 28.9471C74.2673 27.7525 73.9139 26.4284 73.9139 24.975C73.9139 23.8899 74.118 22.8744 74.5261 21.9287C74.9343 20.983 75.4967 20.1517 76.2135 19.4349C76.9402 18.7082 77.7765 18.1408 78.7222 17.7326C79.6679 17.3244 80.6833 17.1204 81.7684 17.1204C82.6345 17.1204 83.4011 17.3095 84.0681 17.6878C84.735 18.0561 85.3025 18.534 85.7704 19.1213V17.5086H89.8918V39.9999H85.7704V30.8585C85.3025 31.4359 84.735 31.9137 84.0681 32.292C83.4011 32.6703 82.6345 32.8595 81.7684 32.8595ZM81.8282 21.0775C81.1413 21.0775 80.5191 21.2567 79.9616 21.6151C79.4041 21.9635 78.9611 22.4364 78.6326 23.0337C78.3041 23.6211 78.1398 24.2682 78.1398 24.975C78.1398 25.7017 78.3041 26.3587 78.6326 26.9461C78.9611 27.5334 79.4041 28.0013 79.9616 28.3498C80.5191 28.6982 81.1413 28.8724 81.8282 28.8724C82.5051 28.8724 83.1124 28.6982 83.6499 28.3498C84.1975 28.0013 84.6255 27.5334 84.9342 26.9461C85.2527 26.3488 85.412 25.6917 85.412 24.975C85.412 24.2582 85.2527 23.6061 84.9342 23.0188C84.6255 22.4314 84.1975 21.9635 83.6499 21.6151C83.1124 21.2567 82.5051 21.0775 81.8282 21.0775Z"
    fill="#517185"
  />
  <path
    d="M92.3242 26.976V17.5086H96.4455V25.8411C96.4455 26.3687 96.57 26.8465 96.8189 27.2746C97.0777 27.6927 97.4211 28.0262 97.8492 28.2751C98.2773 28.524 98.7452 28.6484 99.2529 28.6484C99.7705 28.6484 100.243 28.524 100.671 28.2751C101.1 28.0262 101.438 27.6927 101.687 27.2746C101.936 26.8465 102.06 26.3687 102.06 25.8411V17.5086H106.182L106.197 32.4413H102.075L102.06 31.3064C101.562 31.7843 100.975 32.1576 100.298 32.4264C99.6312 32.6952 98.9244 32.8296 98.1777 32.8296C97.1026 32.8296 96.122 32.5658 95.236 32.0382C94.35 31.5105 93.6432 30.8087 93.1156 29.9326C92.588 29.0466 92.3242 28.0611 92.3242 26.976Z"
    fill="#517185"
  />
  <path
    d="M119.879 10.0422H124.001V32.4413H119.879V30.8585C119.422 31.4359 118.854 31.9087 118.177 32.2771C117.5 32.6454 116.729 32.8296 115.863 32.8296C114.777 32.8296 113.762 32.6255 112.816 32.2173C111.871 31.8092 111.034 31.2467 110.308 30.5299C109.591 29.8032 109.028 28.967 108.62 28.0212C108.212 27.0755 108.008 26.0601 108.008 24.975C108.008 23.8899 108.212 22.8744 108.62 21.9287C109.028 20.983 109.591 20.1517 110.308 19.4349C111.034 18.7082 111.871 18.1408 112.816 17.7326C113.762 17.3244 114.777 17.1204 115.863 17.1204C116.729 17.1204 117.5 17.3045 118.177 17.6729C118.854 18.0312 119.422 18.5041 119.879 19.0915V10.0422ZM115.922 28.8724C116.599 28.8724 117.212 28.6982 117.759 28.3498C118.307 28.0013 118.74 27.5334 119.058 26.9461C119.377 26.3488 119.536 25.6917 119.536 24.975C119.536 24.2482 119.377 23.5912 119.058 23.0038C118.74 22.4165 118.307 21.9486 117.759 21.6002C117.212 21.2517 116.599 21.0775 115.922 21.0775C115.235 21.0775 114.613 21.2517 114.056 21.6002C113.498 21.9486 113.055 22.4215 112.727 23.0188C112.398 23.6061 112.234 24.2582 112.234 24.975C112.234 25.6917 112.398 26.3488 112.727 26.9461C113.065 27.5334 113.513 28.0013 114.071 28.3498C114.628 28.6982 115.245 28.8724 115.922 28.8724Z"
    fill="#517185"
  />
  <path
    fill-rule="evenodd"
    clip-rule="evenodd"
    d="M22.3996 0.14252C21.6127 0.0484162 20.8118 0 19.9996 0C10.3238 0 2.25276 6.87104 0.399682 16H17.5996C20.2506 16 22.3996 13.851 22.3996 11.2V0.14252ZM20 40.0004C20.8122 40.0004 21.6131 39.952 22.4 39.8579V22.4004C22.4 19.7494 20.251 17.6004 17.6 17.6004H0.14252C0.0484162 18.3873 0 19.1882 0 20.0004C0 31.0461 8.95431 40.0004 20 40.0004ZM40 20.0004C40 29.6762 33.129 37.7472 24 39.6003V22.4004C24 19.7494 26.149 17.6004 28.8 17.6004H39.8575C39.9516 18.3873 40 19.1882 40 20.0004ZM24 11.1996C24 13.8506 26.149 15.9996 28.8 15.9996H39.5999C38.0092 8.16309 31.8365 1.99041 24 0.399682V11.1996Z"
    fill="#077453"
  />
</svg>
